<svg xmlns="http://www.w3.org/2000/svg" xmlns:xlink="http://www.w3.org/1999/xlink" viewBox="0 0 1029.07 331.22"><defs><style>.cls-1{fill:none;}.cls-2{clip-path:url(#clip-path);}.cls-3{fill:#fff;}.cls-4{fill:#f38020;}.cls-5{fill:#2aa5a9;}</style><clipPath id="clip-path" transform="translate(-9.87 -18.64)"><rect class="cls-1" width="1048.82" height="368.5"/></clipPath></defs><title>GT</title><g id="Layer_2" data-name="Layer 2"><g id="Layer_1-2" data-name="Layer 1"><g class="cls-2"><path class="cls-3" d="M459.2,299.33a3.19,3.19,0,0,1,2.26.85,2.57,2.57,0,0,1,.79,2.21A27.41,27.41,0,0,1,458.12,315,27,27,0,0,1,447,324.75q-7.42,3.8-18.51,3.79-15.17,0-23.77-8.55t-9.51-22.7q-.23-5.66-.23-9.51t.23-9.51q.9-14.15,9.51-22.7T428.52,247q11.09,0,18.51,3.79a27,27,0,0,1,11.09,9.79,27.41,27.41,0,0,1,4.13,12.57,2.58,2.58,0,0,1-.79,2.21,3.19,3.19,0,0,1-2.26.85H450a3.44,3.44,0,0,1-2.15-.79,3.3,3.3,0,0,1-1.25-2.15,13.8,13.8,0,0,0-5.38-8.6q-4.47-3.51-12.74-3.51t-13,4.76a18.73,18.73,0,0,0-5,12.34q-.23,5.66-.23,9.51t.23,9.51a18.72,18.72,0,0,0,5,12.34q4.58,4.76,13,4.76t12.79-3.51a13.73,13.73,0,0,0,5.43-8.6,3.4,3.4,0,0,1,1.19-2.15,3.24,3.24,0,0,1,2.09-.79Z" transform="translate(-9.87 -18.64)"/><path class="cls-3" d="M526.78,298.09q0,2.94-.23,5.66a27.07,27.07,0,0,1-4.19,12.57,25.54,25.54,0,0,1-9.91,8.94,32.87,32.87,0,0,1-28.64,0,25.52,25.52,0,0,1-9.91-8.94,27,27,0,0,1-4.19-12.57q-.11-1.36-.11-5.66t.11-5.77a27.17,27.17,0,0,1,4.19-12.68,25.54,25.54,0,0,1,9.91-8.95,32.87,32.87,0,0,1,28.64,0,25.56,25.56,0,0,1,9.91,8.95,27.22,27.22,0,0,1,4.19,12.68Q526.78,295,526.78,298.09Zm-37.87-14.38q-3.8,2.72-4.47,9.17-.11,1.13-.11,5.1t.11,5.09q.68,6.45,4.47,9.17a17,17,0,0,0,18.45,0q3.79-2.72,4.47-9.17.23-2.26.23-5.09t-.23-5.1q-.68-6.45-4.47-9.17a17,17,0,0,0-18.45,0Z" transform="translate(-9.87 -18.64)"/><path class="cls-3" d="M591.65,326.5a2.94,2.94,0,0,1-2.15.91h-8.6a3.09,3.09,0,0,1-3.06-3.06V295.6q0-7-3.28-11t-9.62-4a11.77,11.77,0,0,0-9.4,4.08Q552,288.8,552,295.6v28.75a3.09,3.09,0,0,1-3.06,3.06h-8.6a3.09,3.09,0,0,1-3.06-3.06V250.08a3.09,3.09,0,0,1,3.06-3.06H549a3.09,3.09,0,0,1,3.06,3.06V274.2a22.24,22.24,0,0,1,16.3-6.79q12.79,0,18.51,7.36t5.72,19.13v30.45A2.94,2.94,0,0,1,591.65,326.5Z" transform="translate(-9.87 -18.64)"/><path class="cls-3" d="M644.75,271.31a26.68,26.68,0,0,1,9.79,10.47A30.42,30.42,0,0,1,658,296.16v5.09a3.09,3.09,0,0,1-3.06,3.06H617.12a9.2,9.2,0,0,0,3.85,7.76,14.86,14.86,0,0,0,9.17,2.89q6.23,0,9.62-2.6a11.24,11.24,0,0,1,2-1.25,5.53,5.53,0,0,1,2.15-.34H653a3,3,0,0,1,2.15.85,2.64,2.64,0,0,1,.91,2q0,2.38-3.11,6a25.49,25.49,0,0,1-9,6.28,33.29,33.29,0,0,1-13.81,2.66,27.51,27.51,0,0,1-14.66-3.85,25.49,25.49,0,0,1-9.68-10.76,35.73,35.73,0,0,1-3.4-16,34.78,34.78,0,0,1,3.4-15.46,26.8,26.8,0,0,1,9.74-11,26.41,26.41,0,0,1,14.6-4.08A27.28,27.28,0,0,1,644.75,271.31Zm-2,20.09Q641.46,281,630.14,281q-5.89,0-9.23,3.17a11.58,11.58,0,0,0-3.79,7.25Z" transform="translate(-9.87 -18.64)"/><path class="cls-3" d="M685.78,285.13q-3,3-3,9.79v29.43a3.09,3.09,0,0,1-3.06,3.06h-8.6a3.09,3.09,0,0,1-3.06-3.06V271.6a3.09,3.09,0,0,1,3.06-3.06h8.6a3.09,3.09,0,0,1,3.06,3.06v2.6a20.16,20.16,0,0,1,6.45-4.3,23.4,23.4,0,0,1,8.6-1.36h5.09A3.09,3.09,0,0,1,706,271.6v7.47a3.09,3.09,0,0,1-3.06,3.06h-7.36Q688.78,282.12,685.78,285.13Z" transform="translate(-9.87 -18.64)"/><path class="cls-3" d="M751.62,271.31a26.68,26.68,0,0,1,9.79,10.47,30.42,30.42,0,0,1,3.45,14.38v5.09a3.09,3.09,0,0,1-3.06,3.06H724a9.2,9.2,0,0,0,3.85,7.76A14.86,14.86,0,0,0,737,315q6.23,0,9.62-2.6a11.24,11.24,0,0,1,2-1.25,5.53,5.53,0,0,1,2.15-.34h9.06a3,3,0,0,1,2.15.85,2.64,2.64,0,0,1,.91,2q0,2.38-3.11,6a25.49,25.49,0,0,1-9,6.28A33.29,33.29,0,0,1,737,328.54a27.51,27.51,0,0,1-14.66-3.85,25.49,25.49,0,0,1-9.68-10.76,35.73,35.73,0,0,1-3.4-16,34.78,34.78,0,0,1,3.4-15.46,26.8,26.8,0,0,1,9.74-11,26.41,26.41,0,0,1,14.6-4.08A27.28,27.28,0,0,1,751.62,271.31Zm-2,20.09Q748.33,281,737,281q-5.89,0-9.23,3.17a11.58,11.58,0,0,0-3.79,7.25Z" transform="translate(-9.87 -18.64)"/><path class="cls-3" d="M829.28,326.5a2.94,2.94,0,0,1-2.15.91h-8.6a3.09,3.09,0,0,1-3.06-3.06V295.6q0-7-3.28-11t-9.62-4a11.77,11.77,0,0,0-9.4,4.08q-3.51,4.07-3.51,10.87v28.75a3.09,3.09,0,0,1-3.06,3.06H778a3.09,3.09,0,0,1-3.06-3.06V271.6a3.09,3.09,0,0,1,3.06-3.06h8.6a3.09,3.09,0,0,1,3.06,3.06v2.6a22.24,22.24,0,0,1,16.3-6.79q12.79,0,18.51,7.36t5.72,19.13v30.45A2.94,2.94,0,0,1,829.28,326.5Z" transform="translate(-9.87 -18.64)"/><path class="cls-3" d="M864.2,311.84q2,2,6.85,2H878a3.09,3.09,0,0,1,3.06,3.06v7.47a3.09,3.09,0,0,1-3.06,3.06h-8.38q-10.76,0-16.41-5.26t-5.66-15.68V282.12H840a3.09,3.09,0,0,1-3.06-3.06V271.6a3.09,3.09,0,0,1,3.06-3.06h7.47V250.08a3.09,3.09,0,0,1,3.06-3.06h8.61a3.09,3.09,0,0,1,3.06,3.06v18.45h14.6a3.09,3.09,0,0,1,3.06,3.06v7.47a3.09,3.09,0,0,1-3.06,3.06h-14.6v24A7.74,7.74,0,0,0,864.2,311.84Z" transform="translate(-9.87 -18.64)"/><path class="cls-3" d="M922,287.78q0,6.79.11,10.19.45,12.22,6.51,18t16.59,5.77q10.53,0,17-6T968.64,298V292.2h-19.7a2.34,2.34,0,0,1-1.81-.74,2.64,2.64,0,0,1-.68-1.87V288a2.65,2.65,0,0,1,.68-1.87,2.34,2.34,0,0,1,1.81-.74h24.23a2.36,2.36,0,0,1,2.6,2.6v10a33.86,33.86,0,0,1-3.62,16,25.82,25.82,0,0,1-10.53,10.76,33.22,33.22,0,0,1-16.42,3.85q-14.15,0-22-8.15T915,298.54q-.11-3.4-.11-10.76T915,277q.45-13.7,8.26-21.85t22-8.15q9.62,0,16.19,3.62a26.89,26.89,0,0,1,9.79,8.55q3.23,4.93,3.45,8.77v.23a1.82,1.82,0,0,1-.68,1.47,2.56,2.56,0,0,1-1.7.57h-2.49a2,2,0,0,1-1.47-.45,4.88,4.88,0,0,1-.91-1.81A20,20,0,0,0,960,257.9q-5.49-4.08-14.77-4.08-10.53,0-16.59,5.77t-6.51,18Q922,281,922,287.78Z" transform="translate(-9.87 -18.64)"/><path class="cls-3" d="M1038.26,248.84a2.6,2.6,0,0,1,.68,1.93v1.7a2.35,2.35,0,0,1-.74,1.81,2.65,2.65,0,0,1-1.87.68H1014v70a2.34,2.34,0,0,1-.74,1.81,2.65,2.65,0,0,1-1.87.68h-2a2.34,2.34,0,0,1-2.49-2.49V255H984.49a2.33,2.33,0,0,1-2.49-2.49v-1.7a2.65,2.65,0,0,1,.68-1.87,2.35,2.35,0,0,1,1.81-.74h51.85A2.6,2.6,0,0,1,1038.26,248.84Z" transform="translate(-9.87 -18.64)"/><path class="cls-4" d="M305.79,126.7l-34.87.28L272,262.14l-42,.34-1.09-135.15L98.6,128.37A24.06,24.06,0,0,0,74.77,152.6l.36,45a24,24,0,0,0,24.22,23.83l44.94-.36a24.06,24.06,0,0,0,23.83-24.22v-1.5l-28.56.23-30.86-41.8,5.21,0,95.78-.78.39,47.84V201a66.22,66.22,0,0,1-65.42,62.15l-44.94.36A66,66,0,0,1,33.08,198l-.32-39.54L9.87,224.1,118.37,349.86l174-43.54,43.84-144.37ZM98.26,86.33l171.5-1.38L227.7,36.19,64.54,67.27l-13.95,40A65.88,65.88,0,0,1,98.26,86.33Z" transform="translate(-9.87 -18.64)"/><path class="cls-5" d="M329.42,84.46,292.36,18.64h-162l-38.31,68c2-.21,4.11-.33,6.2-.35ZM335.91,96l-19.31,30.62-45.69.37L272,262.14l-42,.34-1.09-135.15L98.6,128.37A24.06,24.06,0,0,0,74.77,152.6l.36,45a24,24,0,0,0,24.22,23.83l44.94-.36a24.06,24.06,0,0,0,23.83-24.22v-1.5l-28.56.23-30.86-41.8,5.21,0,95.78-.78.39,47.84V201a66.22,66.22,0,0,1-65.42,62.15l-38.39.31,24.13,42.85h162l81-143.84Z" transform="translate(-9.87 -18.64)"/></g></g></g></svg>